<?xml version="1.0" encoding="utf-8"?>
<!-- Generator: Adobe Illustrator 21.1.0, SVG Export Plug-In . SVG Version: 6.00 Build 0)  -->
<svg version="1.1" id="Capa_1" xmlns="http://www.w3.org/2000/svg" xmlns:xlink="http://www.w3.org/1999/xlink" x="0px" y="0px"
	 viewBox="0 0 4000 2000" style="enable-background:new 0 0 4000 2000;" xml:space="preserve">
<style type="text/css">
	.st0{fill:#FFFFFF;}
</style>
<g id="interactiva_x5F_04">
	<polygon class="st0" points="1783.5,568 1789.8,657.3 1919.2,624.1 1919.2,540 	"/>
</g>
<g id="interactiva_x5F_03">
	<polygon class="st0" points="2354.9,791.2 2339.6,1052.7 2617.6,1167.5 2649.5,883.1 	"/>
</g>
<g id="interactiva_x5F_02">
	<polygon class="st0" points="1724.8,999.5 1741.4,1312.9 2084.5,1156.2 2084.5,874.1 	"/>
</g>
<g id="interactiva_x5F_01">
	<polygon class="st0" points="883.2,1266.6 1070.4,1477.1 1587.6,1264.4 1362.8,1108.2 	"/>
</g>
<g id="imagen">
	
		<image style="overflow:visible;enable-background:new    ;" width="2233" height="1175" xlink:href="7E5FBD4AF86A2FFE.jpg"  transform="matrix(0.9396 0 0 0.9396 990.288 462.8926)">
	</image>
	
		<image style="overflow:visible;" width="706" height="706" id="circle_x5F_04" xlink:href="mega.png"  transform="matrix(3.295843e-02 0 0 3.507886e-02 1942.7084 590.7)">
	</image>
	
		<image style="overflow:visible;" width="706" height="706" id="circle_x5F_03" xlink:href="mega.png"  transform="matrix(3.295843e-02 0 0 3.507886e-02 2536.6934 976.2172)">
	</image>
	
		<image style="overflow:visible;" width="706" height="706" id="circle_x5F_02" xlink:href="mega.png"  transform="matrix(3.295843e-02 0 0 3.507886e-02 2015.1478 1076.7172)">
	</image>
	
		<image style="overflow:visible;" width="706" height="706" id="circle_x5F_01" xlink:href="mega.png"  transform="matrix(3.295843e-02 0 0 3.507886e-02 1348.5355 1262.7172)">
	</image>
</g>
</svg>
